<svg width="28" height="28" viewBox="0 0 28 28" fill="none" xmlns="http://www.w3.org/2000/svg">
<rect x="0.75" y="0.75" width="26.5" height="26.5" rx="13.25" fill="white"/>
<rect x="0.75" y="0.75" width="26.5" height="26.5" rx="13.25" stroke="#8D8D8D" stroke-width="0.5"/>
<path d="M17.6911 18.7683C17.8092 17.7841 17.7738 17.6398 18.5069 17.7992L18.693 17.8155C19.2566 17.8412 19.994 17.7249 20.4272 17.5236C21.3597 17.0909 21.9127 16.3685 20.9932 16.5583C18.8957 16.991 18.7515 16.2808 18.7515 16.2808C20.9663 12.9946 21.8922 8.82314 21.093 7.80204C18.9133 5.01686 15.1402 6.33391 15.0771 6.3681L15.057 6.37181C14.6426 6.28583 14.1788 6.23445 13.6578 6.22603C12.7086 6.21043 11.9884 6.47486 11.442 6.88924C11.442 6.88924 4.71113 4.11619 5.02427 10.3766C5.09087 11.7084 6.93322 20.4539 9.13059 17.8124C9.93371 16.8464 10.7099 16.0297 10.7099 16.0297C11.0953 16.2858 11.5567 16.4164 12.0406 16.3695L12.078 16.3376C12.0663 16.4575 12.0715 16.5748 12.093 16.7137C11.527 17.3462 11.6933 17.4572 10.5616 17.6901C9.41662 17.9261 10.0893 18.3463 10.5284 18.4561C11.0608 18.5892 12.2925 18.7778 13.125 17.6127L13.0919 17.7457C13.3139 17.9233 13.2989 19.0225 13.3304 19.8079C13.3619 20.5933 13.4145 21.3262 13.5746 21.7583C13.7347 22.1903 13.9236 23.3033 15.411 22.9845C16.654 22.7181 17.6044 22.3348 17.6911 18.7683Z" fill="black" stroke="black" stroke-width="1.55943"/>
<path d="M20.9936 16.5583C18.8959 16.991 18.7517 16.2808 18.7517 16.2808C20.9665 12.9944 21.8924 8.82282 21.0934 7.80185C18.9136 5.01683 15.1404 6.33397 15.0775 6.36816L15.0572 6.37179C14.6428 6.28576 14.179 6.23451 13.6577 6.226C12.7085 6.21045 11.9886 6.47483 11.4422 6.88913C11.4422 6.88913 4.71121 4.11621 5.02426 10.3766C5.09086 11.7085 6.93318 20.454 9.13062 17.8124C9.93379 16.8465 10.7098 16.0298 10.7098 16.0298C11.0953 16.2858 11.5567 16.4164 12.0404 16.3695L12.078 16.3376C12.0663 16.4576 12.0716 16.5749 12.093 16.7137C11.5269 17.3462 11.6933 17.4573 10.5616 17.6902C9.41657 17.9262 10.0893 18.3463 10.5284 18.4561C11.0609 18.5893 12.2927 18.7779 13.125 17.6128L13.0918 17.7457C13.3136 17.9234 13.4694 18.9013 13.4433 19.7878C13.4172 20.6743 13.3997 21.2829 13.5745 21.7583C13.7493 22.2337 13.9235 23.3034 15.4111 22.9846C16.6542 22.7182 17.2983 22.0279 17.388 20.8764C17.4516 20.0578 17.5955 20.1788 17.6046 19.4469L17.72 19.1004C17.8531 17.9907 17.7411 17.6327 18.507 17.7992L18.6931 17.8155C19.2568 17.8412 19.9945 17.7249 20.4275 17.5236C21.3598 17.0909 21.9128 16.3685 20.9935 16.5583H20.9936Z" fill="#336791"/>
<path d="M13.2165 17.1914C13.1588 19.2563 13.231 21.3355 13.4331 21.8409C13.6352 22.3462 14.0679 23.3291 15.5557 23.0104C16.7986 22.7439 17.2509 22.2282 17.4471 21.09C17.5916 20.2526 17.8703 17.9268 17.906 17.4503" stroke="white" stroke-width="0.51981" stroke-linecap="round" stroke-linejoin="round"/>
<path d="M11.4331 6.84304C11.4331 6.84304 4.69745 4.09009 5.01059 10.3505C5.07719 11.6823 6.91963 20.4282 9.11703 17.7865C9.92003 16.8204 10.6463 16.0628 10.6463 16.0628" stroke="white" stroke-width="0.51981" stroke-linecap="round" stroke-linejoin="round"/>
<path d="M15.0704 6.33906C14.8372 6.41216 18.8171 4.88415 21.079 7.77429C21.8779 8.7953 20.9521 12.9669 18.7373 16.2534" stroke="white" stroke-width="0.51981" stroke-linecap="round" stroke-linejoin="round"/>
<path d="M18.7413 16.2529C18.7413 16.2529 18.8856 16.9633 20.9833 16.5303C21.9024 16.3405 21.3493 17.063 20.4171 17.4959C19.6521 17.851 17.937 17.942 17.909 17.4514C17.8369 16.1855 18.8116 16.5701 18.7413 16.2529ZM18.7413 16.2529C18.6777 15.9673 18.2418 15.6869 17.9534 14.9878C17.7017 14.3776 14.5007 9.69802 18.8411 10.393C19.0001 10.3601 17.7091 6.26451 13.6471 6.19792C9.58602 6.13132 9.71926 11.1921 9.71926 11.1921" stroke="white" stroke-width="0.51981" stroke-linecap="round" stroke-linejoin="bevel"/>
<path d="M12.0805 16.6854C11.5143 17.3179 11.6808 17.4289 10.5491 17.6619C9.40404 17.898 10.0768 18.318 10.5159 18.4278C11.0483 18.561 12.2801 18.7496 13.1124 17.5842C13.3659 17.2294 13.1109 16.6632 12.7628 16.5189C12.5946 16.4492 12.3696 16.3619 12.0805 16.6854Z" stroke="white" stroke-width="0.51981" stroke-linecap="round" stroke-linejoin="round"/>
<path d="M12.0444 16.6762C11.9873 16.3044 12.1666 15.8619 12.3586 15.3442C12.6473 14.5675 13.3133 13.7906 12.7805 11.3267C12.3834 9.49068 9.71982 10.9446 9.71816 11.1936C9.71653 11.4425 9.83863 12.4555 9.67366 13.6351C9.4584 15.1744 10.6531 16.4763 12.0289 16.3431" stroke="white" stroke-width="0.51981" stroke-linecap="round" stroke-linejoin="round"/>
<path d="M11.4069 11.1533C11.3948 11.2383 11.5625 11.4652 11.7812 11.4955C11.9994 11.5259 12.1863 11.3486 12.1981 11.2637C12.2099 11.1786 12.0425 11.085 11.8237 11.0545C11.6054 11.0241 11.4185 11.0684 11.4069 11.1533H11.4069Z" fill="white" stroke="white" stroke-width="0.173269"/>
<path d="M18.0558 10.9833C18.0676 11.0683 17.9001 11.2952 17.6815 11.3256C17.463 11.356 17.2762 11.1787 17.2642 11.0937C17.2527 11.0087 17.4202 10.915 17.6387 10.8846C17.8571 10.8542 18.0439 10.8985 18.0558 10.9834V10.9833Z" fill="white" stroke="white" stroke-width="0.0866343"/>
<path d="M18.8392 10.3945C18.8752 11.0615 18.6956 11.5158 18.6729 12.2258C18.6394 13.2578 19.165 14.439 18.373 15.6217" stroke="white" stroke-width="0.51981" stroke-linecap="round" stroke-linejoin="round"/>
</svg>
