<svg width="28" height="28" viewBox="0 0 28 28" fill="none" xmlns="http://www.w3.org/2000/svg">
<rect x="0.75" y="0.75" width="26.5" height="26.5" rx="13.25" fill="white"/>
<rect x="0.75" y="0.75" width="26.5" height="26.5" rx="13.25" stroke="#8D8D8D" stroke-width="0.5"/>
<mask id="mask0_2004_1884" style="mask-type:luminance" maskUnits="userSpaceOnUse" x="3" y="8" width="21" height="13">
<path d="M3 8H24V20.5502H3V8Z" fill="white"/>
</mask>
<g mask="url(#mask0_2004_1884)">
<path fill-rule="evenodd" clip-rule="evenodd" d="M13.5 8C10.7 8 8.95 9.39447 8.25 12.1834C9.3 10.7889 10.525 10.266 11.925 10.6146C12.7238 10.8133 13.2947 11.3909 13.9266 12.0296C14.956 13.0704 16.1476 14.2751 18.75 14.2751C21.55 14.2751 23.3 12.8806 24 10.0917C22.95 11.4862 21.725 12.0091 20.325 11.6605C19.5262 11.4618 18.9553 10.8842 18.3234 10.2455C17.294 9.20466 16.1024 8 13.5 8ZM8.25 14.2751C5.45 14.2751 3.7 15.6696 3 18.4585C4.05 17.064 5.275 16.5411 6.675 16.8897C7.47378 17.0888 8.04467 17.666 8.67661 18.3047C9.706 19.3455 10.8976 20.5502 13.5 20.5502C16.3 20.5502 18.05 19.1557 18.75 16.3668C17.7 17.7613 16.475 18.2842 15.075 17.9356C14.2762 17.7369 13.7053 17.1593 13.0734 16.5206C12.044 15.4798 10.8524 14.2751 8.25 14.2751Z" fill="#38BDF8"/>
</g>
</svg>
