<?xml version="1.0" encoding="utf-8"?><svg xmlns="http://www.w3.org/2000/svg" xmlns:xlink="http://www.w3.org/1999/xlink" width="2010" height="82" preserveAspectRatio="xMidYMid" viewBox="0 0 2010 82" style="z-index:1;margin-right:-2px;display:block;animation-play-state:paused" ><g transform="translate(1005,41) scale(1,1) translate(-1005,-41)" style="transform:matrix(1, 0, 0, 1, 0, 0);animation-play-state:paused" ><path id="path0" d="M 350.1642167993057 60.361799374022915
c 0 24.782308510810246 -6.0637563377514425 7.11832265736039 -13.182078995111832 7.11832265736039
S 323.800058809082 85.14410788483316 323.800058809082 60.361799374022915
s 6.0637563377514425 -7.11832265736039 13.182078995111832 -7.11832265736039
S 350.1642167993057 35.57949086321267 350.1642167993057 60.361799374022915
z" fill="none" stroke="none" style="animation-play-state:paused" ></path>


<circle cx="0" cy="0" r="5.935578850361055" fill="#9df871" opacity="0.9" transform="translate(326.3704833984375 73.57111358642578)" style="opacity:0.9;animation-play-state:paused" ></circle>
<path id="path1" d="M 152.86771718953554 14.341060123794161
c 0 32.78373467626905 -8.021552101640298 9.416604641056004 -17.438156742696304 9.416604641056004
S 117.99140370414294 47.12479480006321 117.99140370414294 14.341060123794161
s 8.021552101640298 -9.416604641056004 17.438156742696304 -9.416604641056004
S 152.86771718953554 -18.442674552474887 152.86771718953554 14.341060123794161
z" fill="none" stroke="none" style="animation-play-state:paused" ></path>


<circle cx="0" cy="0" r="4.00515009353581" fill="#de9dd6" opacity="0.9" transform="translate(152.8675537109375 14.502296447753906)" style="opacity:0.9;animation-play-state:paused" ></circle>
<path id="path2" d="M 161.138572951573 75.07673717599859
c 0 36.67496028383787 -8.973660494981607 10.534297102804494 -19.507957597786103 10.534297102804494
S 122.1226577560008 111.75169745983646 122.1226577560008 75.07673717599859
s 8.973660494981607 -10.534297102804494 19.507957597786103 -10.534297102804494
S 161.138572951573 38.40177689216072 161.138572951573 75.07673717599859
z" fill="none" stroke="none" style="animation-play-state:paused" ></path>


<circle cx="0" cy="0" r="3.2418784035298227" fill="#9df871" opacity="0.9" transform="translate(157.45733642578125 94.60568237304688)" style="opacity:0.9;animation-play-state:paused" ></circle>
<path id="path3" d="M 271.187857268205 64.99163522903437
c 0 27.575704608682805 -6.747246872337281 7.920681111004636 -14.667927983341917 7.920681111004636
S 241.85200130152114 92.56733983771718 241.85200130152114 64.99163522903437
s 6.747246872337281 -7.920681111004636 14.667927983341917 -7.920681111004636
S 271.187857268205 37.41593062035157 271.187857268205 64.99163522903437
z" fill="none" stroke="none" style="animation-play-state:paused" ></path>


<circle cx="0" cy="0" r="4.152085540903577" fill="#ff708e" opacity="0.9" transform="translate(242.08343505859375 72.38753509521484)" style="opacity:0.9;animation-play-state:paused" ></circle>
<path id="path4" d="M 1592.8953076035857 15.337224618792877
c 0 27.882567284017853 -6.822330292897985 8.00882251774981 -14.831152810647794 8.00882251774981
S 1563.23300198229 43.21979190281073 1563.23300198229 15.337224618792877
s 6.822330292897985 -8.00882251774981 14.831152810647794 -8.00882251774981
S 1592.8953076035857 -12.545342665224975 1592.8953076035857 15.337224618792877
z" fill="none" stroke="none" style="animation-play-state:paused" ></path>


<circle cx="0" cy="0" r="4.660363263268584" fill="#de9dd6" opacity="0.9" transform="translate(1563.3763427734375 21.429752349853516)" style="opacity:0.9;animation-play-state:paused" ></circle>
<path id="path5" d="M 160.14547838649744 25.230616830160418
c 0 22.464530679697678 -5.496640485457942 6.452577961189759 -11.9492184466477 6.452577961189759
S 136.24704149320203 47.695147509858096 136.24704149320203 25.230616830160418
s 5.496640485457942 -6.452577961189759 11.9492184466477 -6.452577961189759
S 160.14547838649744 2.7660861504627405 160.14547838649744 25.230616830160418
z" fill="none" stroke="none" style="animation-play-state:paused" ></path>


<circle cx="0" cy="0" r="4.911741401834392" fill="#de9dd6" opacity="0.9" transform="translate(140.65869140625 36.31295394897461)" style="opacity:0.9;animation-play-state:paused" ></circle>
<path id="path6" d="M 1045.7993052242061 29.4814839339068
c 0 36.79283892344235 -9.002503140842277 10.568155860988762 -19.57065900183104 10.568155860988762
S 1006.6579872205441 66.27432285734915 1006.6579872205441 29.4814839339068
s 9.002503140842277 -10.568155860988762 19.57065900183104 -10.568155860988762
S 1045.7993052242061 -7.311354989535552 1045.7993052242061 29.4814839339068
z" fill="none" stroke="none" style="animation-play-state:paused" ></path>


<circle cx="0" cy="0" r="5.130600258389018" fill="#9df871" opacity="0.9" transform="translate(1044.123291015625 46.921836853027344)" style="opacity:0.9;animation-play-state:paused" ></circle>
<path id="path7" d="M 1276.0507655455583 44.21024276411967
c 0 34.89029225201285 -8.53698640208825 10.021679689407947 -18.558666091496196 10.021679689407947
S 1238.933433362566 79.10053501613251 1238.933433362566 44.21024276411967
s 8.53698640208825 -10.021679689407947 18.558666091496196 -10.021679689407947
S 1276.0507655455583 9.319950512106821 1276.0507655455583 44.21024276411967
z" fill="none" stroke="none" style="animation-play-state:paused" ></path>


<circle cx="0" cy="0" r="5.430378725701102" fill="#9df871" opacity="0.9" transform="translate(1274.5430908203125 27.87969398498535)" style="opacity:0.9;animation-play-state:paused" ></circle>
<path id="path8" d="M 1160.861120056932 36.46461040831407
c 0 21.735313893183747 -5.318215101523682 6.243122075701715 -11.561337177225397 6.243122075701715
S 1137.7384457024812 58.199924301497816 1137.7384457024812 36.46461040831407
s 5.318215101523682 -6.243122075701715 11.561337177225397 -6.243122075701715
S 1160.861120056932 14.729296515130326 1160.861120056932 36.46461040831407
z" fill="none" stroke="none" style="animation-play-state:paused" ></path>


<circle cx="0" cy="0" r="5.216064382611162" fill="#de9dd6" opacity="0.9" transform="translate(1152.287109375 43.73138427734375)" style="opacity:0.9;animation-play-state:paused" ></circle>
<path id="path9" d="M 1669.8744082829746 37.98235208005979
c 0 32.940136406858905 -8.059820610188881 9.461528542395644 -17.521349152584524 9.461528542395644
S 1634.8317099778058 70.9224884869187 1634.8317099778058 37.98235208005979
s 8.059820610188881 -9.461528542395644 17.521349152584524 -9.461528542395644
S 1669.8744082829746 5.042215673200886 1669.8744082829746 37.98235208005979
z" fill="none" stroke="none" style="animation-play-state:paused" ></path>


<circle cx="0" cy="0" r="3.3722477723349797" fill="#ff708e" opacity="0.9" transform="translate(1653.1041259765625 28.47244644165039)" style="opacity:0.9;animation-play-state:paused" ></circle>
<path id="path10" d="M 1071.2702584012545 4.281342968800901
c 0 25.524023524280874 -6.245239798494256 7.331368459101954 -13.57660825759621 7.331368459101954
S 1044.117041886062 29.805366493081777 1044.117041886062 4.281342968800901
s 6.245239798494256 -7.331368459101954 13.57660825759621 -7.331368459101954
S 1071.2702584012545 -21.24268055547997 1071.2702584012545 4.281342968800901
z" fill="none" stroke="none" style="animation-play-state:paused" ></path>


<circle cx="0" cy="0" r="3.351098359361723" fill="#e0ff77" opacity="0.9" transform="translate(1050.5263671875 15.721540451049805)" style="opacity:0.9;animation-play-state:paused" ></circle>
<path id="path11" d="M 1998.195461841592 75.49639900136347
c 0 26.257944357621426 -6.424816172609497 7.542175506976368 -13.966991679585865 7.542175506976368
S 1970.2614784824204 101.7543433589849 1970.2614784824204 75.49639900136347
s 6.424816172609497 -7.542175506976368 13.966991679585865 -7.542175506976368
S 1998.195461841592 49.238454643742045 1998.195461841592 75.49639900136347
z" fill="none" stroke="none" style="animation-play-state:paused" ></path>


<circle cx="0" cy="0" r="3.0204678093639723" fill="#de9dd6" opacity="0.9" transform="translate(1998.142578125 79.28182220458984)" style="opacity:0.9;animation-play-state:paused" ></circle>
<path id="path12" d="M 1323.6924409842584 26.838441670651044
c 0 19.08451727613505 -4.669615929267086 5.481723047400493 -10.151338976667578 5.481723047400493
S 1303.3897630309232 45.922958946786096 1303.3897630309232 26.838441670651044
s 4.669615929267086 -5.481723047400493 10.151338976667578 -5.481723047400493
S 1323.6924409842584 7.753924394515995 1323.6924409842584 26.838441670651044
z" fill="none" stroke="none" style="animation-play-state:paused" ></path>


<circle cx="0" cy="0" r="3.758486364411761" fill="#e0ff77" opacity="0.9" transform="translate(1320.743896484375 36.77402877807617)" style="opacity:0.9;animation-play-state:paused" ></circle>
<path id="path13" d="M 873.01365742615 43.73191807673494
c 0 26.67244374593943 -6.526236235708583 7.661233841918772 -14.187470077627356 7.661233841918772
S 844.6387172708952 70.40436182267437 844.6387172708952 43.73191807673494
s 6.526236235708583 -7.661233841918772 14.187470077627356 -7.661233841918772
S 873.01365742615 17.059474330795513 873.01365742615 43.73191807673494
z" fill="none" stroke="none" style="animation-play-state:paused" ></path>


<circle cx="0" cy="0" r="4.07496112563269" fill="#51cacc" opacity="0.9" transform="translate(873.001953125 45.606815338134766)" style="opacity:0.9;animation-play-state:paused" ></circle>
<path id="path14" d="M 643.3951723933069 66.5267151938994
c 0 31.448168695677456 -7.694764680857249 9.032984625354164 -16.72774930621141 9.032984625354164
S 609.939673780884 97.97488388957686 609.939673780884 66.5267151938994
s 7.694764680857249 -9.032984625354164 16.72774930621141 -9.032984625354164
S 643.3951723933069 35.078546498221954 643.3951723933069 66.5267151938994
z" fill="none" stroke="none" style="animation-play-state:paused" ></path>


<circle cx="0" cy="0" r="4.027130188788684" fill="#9df871" opacity="0.9" transform="translate(631.2369995117188 55.853363037109375)" style="opacity:0.9;animation-play-state:paused" ></circle>
<path id="path15" d="M 691.3783363671364 53.65588740382899
c 0 33.89725000281571 -8.294007979412353 9.736444149744937 -18.03045212915729 9.736444149744937
S 655.3174321088218 87.55313740664471 655.3174321088218 53.65588740382899
s 8.294007979412353 -9.736444149744937 18.03045212915729 -9.736444149744937
S 691.3783363671364 19.75863740101328 691.3783363671364 53.65588740382899
z" fill="none" stroke="none" style="animation-play-state:paused" ></path>


<circle cx="0" cy="0" r="5.803864019463049" fill="#9df871" opacity="0.9" transform="translate(655.3518676757812 50.10652542114258)" style="opacity:0.9;animation-play-state:paused" ></circle>
<path id="path16" d="M 560.5112138654443 6.496253575780688
c 0 35.03998796669793 -8.573614076958004 10.06467739468983 -18.638291471647833 10.06467739468983
S 523.2346309221488 41.53624154247862 523.2346309221488 6.496253575780688
s 8.573614076958004 -10.06467739468983 18.638291471647833 -10.06467739468983
S 560.5112138654443 -28.54373439091724 560.5112138654443 6.496253575780688
z" fill="none" stroke="none" style="animation-play-state:paused" ></path>


<circle cx="0" cy="0" r="3.574815910450111" fill="#9df871" opacity="0.9" transform="translate(523.2515869140625 3.9243996143341064)" style="opacity:0.9;animation-play-state:paused" ></circle>
<path id="path17" d="M 674.7151454657243 77.78076987033708
c 0 34.96351205096918 -8.554901884811606 10.042710908257105 -18.597612793068713 10.042710908257105
S 637.5199198795868 112.74428192130625 637.5199198795868 77.78076987033708
s 8.554901884811606 -10.042710908257105 18.597612793068713 -10.042710908257105
S 674.7151454657243 42.8172578193679 674.7151454657243 77.78076987033708
z" fill="none" stroke="none" style="animation-play-state:paused" ></path>


<circle cx="0" cy="0" r="3.6863038485579045" fill="#9df871" opacity="0.9" transform="translate(660.2288208007812 66.50518798828125)" style="opacity:0.9;animation-play-state:paused" ></circle>
<path id="path18" d="M 785.9039681923922 12.12267914718323
c 0 25.67684909233433 -6.282633288549889 7.375265164819435 -13.657898453369324 7.375265164819435
S 758.5881712856536 37.79952823951756 758.5881712856536 12.12267914718323
s 6.282633288549889 -7.375265164819435 13.657898453369324 -7.375265164819435
S 785.9039681923922 -13.554169945151099 785.9039681923922 12.12267914718323
z" fill="none" stroke="none" style="animation-play-state:paused" ></path>


<circle cx="0" cy="0" r="5.147710618107233" fill="#de9dd6" opacity="0.9" transform="translate(758.5907592773438 12.950653076171875)" style="opacity:0.9;animation-play-state:paused" ></circle>
<path id="path19" d="M 1891.3551864687727 58.358452717692764
c 0 30.030369824164463 -7.347856446338112 8.625744523962133 -15.973600970300247 8.625744523962133
S 1859.4079845281724 88.38882254185722 1859.4079845281724 58.358452717692764
s 7.347856446338112 -8.625744523962133 15.973600970300247 -8.625744523962133
S 1891.3551864687727 28.3280828935283 1891.3551864687727 58.358452717692764
z" fill="none" stroke="none" style="animation-play-state:paused" ></path>


<circle cx="0" cy="0" r="3.5023065075081314" fill="#9df871" opacity="0.9" transform="translate(1877.582763671875 49.30104064941406)" style="opacity:0.9;animation-play-state:paused" ></circle>
<path id="path20" d="M 790.9085666707716 43.39181207536887
c 0 20.423824617711755 -4.99731878944011 5.8664177093427385 -10.863736498782847 5.8664177093427385
S 769.181093673206 63.81563669308062 769.181093673206 43.39181207536887
s 4.99731878944011 -5.8664177093427385 10.863736498782847 -5.8664177093427385
S 790.9085666707716 22.967987457657113 790.9085666707716 43.39181207536887
z" fill="none" stroke="none" style="animation-play-state:paused" ></path>


<circle cx="0" cy="0" r="4.412623953365953" fill="#9df871" opacity="0.9" transform="translate(790.7440795898438 38.00784683227539)" style="opacity:0.9;animation-play-state:paused" ></circle>
<path id="path21" d="M 1420.943082411657 33.08799952523174
c 0 24.365617574513763 -5.961800044827835 6.998634835232677 -12.960434880060511 6.998634835232677
S 1395.022212651536 57.4536170997455 1395.022212651536 33.08799952523174
s 5.961800044827835 -6.998634835232677 12.960434880060511 -6.998634835232677
S 1420.943082411657 8.722381950717974 1420.943082411657 33.08799952523174
z" fill="none" stroke="none" style="animation-play-state:paused" ></path>


<circle cx="0" cy="0" r="3.7476419796840226" fill="#ff708e" opacity="0.9" transform="translate(1397.6380615234375 46.08312225341797)" style="opacity:0.9;animation-play-state:paused" ></circle>
<path id="path22" d="M 671.3717770013733 12.654901251581775
c 0 26.757706817182587 -6.547098476544675 7.685724298552445 -14.23282277509712 7.685724298552445
S 642.906131451179 39.412608068764364 642.906131451179 12.654901251581775
s 6.547098476544675 -7.685724298552445 14.23282277509712 -7.685724298552445
S 671.3717770013733 -14.102805565600812 671.3717770013733 12.654901251581775
z" fill="none" stroke="none" style="animation-play-state:paused" ></path>


<circle cx="0" cy="0" r="5.2652919346201825" fill="#ff708e" opacity="0.9" transform="translate(642.9071044921875 12.146255493164062)" style="opacity:0.9;animation-play-state:paused" ></circle>
<path id="path23" d="M 575.1247100091185 38.92834705580941
c 0 20.61137262441908 -5.043208195336583 5.920287881482077 -10.96349607681866 5.920287881482077
S 553.1977178554813 59.53971968022849 553.1977178554813 38.92834705580941
s 5.043208195336583 -5.920287881482077 10.96349607681866 -5.920287881482077
S 575.1247100091185 18.31697443139033 575.1247100091185 38.92834705580941
z" fill="none" stroke="none" style="animation-play-state:paused" ></path>


<circle cx="0" cy="0" r="4.5435794981961575" fill="#9df871" opacity="0.9" transform="translate(561.5670776367188 45.67356872558594)" style="opacity:0.9;animation-play-state:paused" ></circle>
<path id="path24" d="M 1096.2790742344891 5.570001166965553
c 0 22.979579480055122 -5.6226630642688065 6.600517510228599 -12.223180574497405 6.600517510228599
S 1071.832713085494 28.549580647020676 1071.832713085494 5.570001166965553
s 5.6226630642688065 -6.600517510228599 12.223180574497405 -6.600517510228599
S 1096.2790742344891 -17.40957831308957 1096.2790742344891 5.570001166965553
z" fill="none" stroke="none" style="animation-play-state:paused" ></path>


<circle cx="0" cy="0" r="4.531157550871808" fill="#ff708e" opacity="0.9" transform="translate(1090.66552734375 -4.864487171173096)" style="opacity:0.9;animation-play-state:paused" ></circle>
<path id="path25" d="M 1113.305039086221 26.126832205114262
c 0 31.87335275130645 -7.798799077447321 9.15511196048164 -16.95391103792896 9.15511196048164
S 1079.3972170103632 58.00018495642071 1079.3972170103632 26.126832205114262
s 7.798799077447321 -9.15511196048164 16.95391103792896 -9.15511196048164
S 1113.305039086221 -5.746520546192187 1113.305039086221 26.126832205114262
z" fill="none" stroke="none" style="animation-play-state:paused" ></path>


<circle cx="0" cy="0" r="5.347203999312674" fill="#ff708e" opacity="0.9" transform="translate(1113.29541015625 27.965686798095703)" style="opacity:0.9;animation-play-state:paused" ></circle>
<path id="path26" d="M 1480.694237204586 55.54474516613153
c 0 21.535166464059884 -5.269242858227418 6.18563292052784 -11.454875778755259 6.18563292052784
S 1457.7844856470756 77.07991163019142 1457.7844856470756 55.54474516613153
s 5.269242858227418 -6.18563292052784 11.454875778755259 -6.18563292052784
S 1480.694237204586 34.00957870207164 1480.694237204586 55.54474516613153
z" fill="none" stroke="none" style="animation-play-state:paused" ></path>


<circle cx="0" cy="0" r="5.953786118605096" fill="#ff708e" opacity="0.9" transform="translate(1457.86279296875 51.494022369384766)" style="opacity:0.9;animation-play-state:paused" ></circle>
<path id="path27" d="M 1674.0121335760948 65.46372122795638
c 0 28.09109173173977 -6.873352232234198 8.068717837840147 -14.942070070074344 8.068717837840147
S 1644.127993435946 93.55481295969615 1644.127993435946 65.46372122795638
s 6.873352232234198 -8.068717837840147 14.942070070074344 -8.068717837840147
S 1674.0121335760948 37.37262949621662 1674.0121335760948 65.46372122795638
z" fill="none" stroke="none" style="animation-play-state:paused" ></path>


<circle cx="0" cy="0" r="4.621418331834018" fill="#51cacc" opacity="0.9" transform="translate(1655.4915771484375 56.2447509765625)" style="opacity:0.9;animation-play-state:paused" ></circle>
<path id="path28" d="M 1137.6407808107144 37.701281375875304
c 0 22.476707194803975 -5.499619845537143 6.456075470847951 -11.955695316385093 6.456075470847951
S 1113.7293901779442 60.177988570679275 1113.7293901779442 37.701281375875304
s 5.499619845537143 -6.456075470847951 11.955695316385093 -6.456075470847951
S 1137.6407808107144 15.224574181071329 1137.6407808107144 37.701281375875304
z" fill="none" stroke="none" style="animation-play-state:paused" ></path>


<circle cx="0" cy="0" r="5.484161046814653" fill="#9df871" opacity="0.9" transform="translate(1134.3687744140625 49.49961853027344)" style="opacity:0.9;animation-play-state:paused" ></circle>
<path id="path29" d="M 1424.60387504624 44.79153085370939
c 0 34.34980874956015 -8.404740438722161 9.866434428065148 -18.27117486678731 9.866434428065148
S 1388.0615253126655 79.14133960326953 1388.0615253126655 44.79153085370939
s 8.404740438722161 -9.866434428065148 18.27117486678731 -9.866434428065148
S 1424.60387504624 10.441722104149243 1424.60387504624 44.79153085370939
z" fill="none" stroke="none" style="animation-play-state:paused" ></path>


<circle cx="0" cy="0" r="5.548020196444169" fill="#9df871" opacity="0.9" transform="translate(1424.29296875 35.29890441894531)" style="opacity:0.9;animation-play-state:paused" ></circle>
<path id="path30" d="M 1579.942786443538 56.41719939587089
c 0 28.43801935790951 -6.958238779062965 8.168367262378263 -15.126606041441228 8.168367262378263
S 1549.6895743606556 84.8552187537804 1549.6895743606556 56.41719939587089
s 6.958238779062965 -8.168367262378263 15.126606041441228 -8.168367262378263
S 1579.942786443538 27.979180037961378 1579.942786443538 56.41719939587089
z" fill="none" stroke="none" style="animation-play-state:paused" ></path>


<circle cx="0" cy="0" r="5.798213968302887" fill="#9df871" opacity="0.9" transform="translate(1579.93896484375 57.41105651855469)" style="opacity:0.9;animation-play-state:paused" ></circle>
<path id="path31" d="M 1719.677698748475 49.06621121579555
c 0 33.000728548268235 -8.074646346916696 9.478932668119601 -17.553579015036295 9.478932668119601
S 1684.5705407184023 82.06693976406379 1684.5705407184023 49.06621121579555
s 8.074646346916696 -9.478932668119601 17.553579015036295 -9.478932668119601
S 1719.677698748475 16.065482667527313 1719.677698748475 49.06621121579555
z" fill="none" stroke="none" style="animation-play-state:paused" ></path>


<circle cx="0" cy="0" r="3.323009761767031" fill="#de9dd6" opacity="0.9" transform="translate(1713.485107421875 65.55848693847656)" style="opacity:0.9;animation-play-state:paused" ></circle>
<path id="path32" d="M 1568.2924781280733 68.99246170296016
c 0 34.83439383696902 -8.523309130322206 10.00562376168259 -18.528932892004796 10.00562376168259
S 1531.2346123440636 103.82685553992917 1531.2346123440636 68.99246170296016
s 8.523309130322206 -10.00562376168259 18.528932892004796 -10.00562376168259
S 1568.2924781280733 34.158067865991136 1568.2924781280733 68.99246170296016
z" fill="none" stroke="none" style="animation-play-state:paused" ></path>


<circle cx="0" cy="0" r="4.593968503013276" fill="#de9dd6" opacity="0.9" transform="translate(1532.280029296875 83.75527954101562)" style="opacity:0.9;animation-play-state:paused" ></circle>
<path id="path33" d="M 1409.8466808128694 45.68276432559322
c 0 27.824646189401555 -6.80815811017272 7.992185607594064 -14.800343717766784 7.992185607594064
S 1380.245993377336 73.50741051499477 1380.245993377336 45.68276432559322
s 6.80815811017272 -7.992185607594064 14.800343717766784 -7.992185607594064
S 1409.8466808128694 17.858118136191663 1409.8466808128694 45.68276432559322
z" fill="none" stroke="none" style="animation-play-state:paused" ></path>


<circle cx="0" cy="0" r="3.192044755770164" fill="#9df871" opacity="0.9" transform="translate(1399.4146728515625 55.345882415771484)" style="opacity:0.9;animation-play-state:paused" ></circle>
<path id="path34" d="M 274.6072650895662 27.34797168824592
c 0 36.69537849331359 -8.978656439853324 10.540161907653905 -19.518818347507228 10.540161907653905
S 235.56962839455176 64.0433501815595 235.56962839455176 27.34797168824592
s 8.978656439853324 -10.540161907653905 19.518818347507228 -10.540161907653905
S 274.6072650895662 -9.34740680506767 274.6072650895662 27.34797168824592
z" fill="none" stroke="none" style="animation-play-state:paused" ></path>


<circle cx="0" cy="0" r="5.276940772807746" fill="#ff708e" opacity="0.9" transform="translate(248.26654052734375 13.82705020904541)" style="opacity:0.9;animation-play-state:paused" ></circle>
<path id="path35" d="M 532.9527781738983 58.41691697296354
c 0 22.29591746862651 -5.455384061472443 6.404146506945912 -11.859530568418355 6.404146506945912
S 509.23371703706164 80.71283444159005 509.23371703706164 58.41691697296354
s 5.455384061472443 -6.404146506945912 11.859530568418355 -6.404146506945912
S 532.9527781738983 36.120999504337036 532.9527781738983 58.41691697296354
z" fill="none" stroke="none" style="animation-play-state:paused" ></path>


<circle cx="0" cy="0" r="4.187448000559486" fill="#e0ff77" opacity="0.9" transform="translate(532.8375854492188 63.3000373840332)" style="opacity:0.9;animation-play-state:paused" ></circle>
<path id="path36" d="M 756.5418376220379 21.55522140428419
c 0 23.388797138648435 -5.722790789243765 6.718058752590508 -12.440849541834273 6.718058752590508
S 731.6601385383693 44.944018542932625 731.6601385383693 21.55522140428419
s 5.722790789243765 -6.718058752590508 12.440849541834273 -6.718058752590508
S 756.5418376220379 -1.8335757343642456 756.5418376220379 21.55522140428419
z" fill="none" stroke="none" style="animation-play-state:paused" ></path>


<circle cx="0" cy="0" r="5.818787345632259" fill="#de9dd6" opacity="0.9" transform="translate(731.9138793945312 28.500215530395508)" style="opacity:0.9;animation-play-state:paused" ></circle>
<path id="path37" d="M 734.0309299339681 25.45536625704727
c 0 27.559467175640368 -6.743273883401366 7.91601716747117 -14.659291050872536 7.91601716747117
S 704.712347832223 53.01483343268764 704.712347832223 25.45536625704727
s 6.743273883401366 -7.91601716747117 14.659291050872536 -7.91601716747117
S 734.0309299339681 -2.1041009185930974 734.0309299339681 25.45536625704727
z" fill="none" stroke="none" style="animation-play-state:paused" ></path>


<circle cx="0" cy="0" r="5.205276195617813" fill="#e0ff77" opacity="0.9" transform="translate(704.7188720703125 24.037147521972656)" style="opacity:0.9;animation-play-state:paused" ></circle>
<path id="path38" d="M 1184.2476171286994 8.191193580838705
c 0 20.335624014576297 -4.975737790800583 5.841083493548511 -10.816821284349095 5.841083493548511
S 1162.6139745600012 28.526817595415004 1162.6139745600012 8.191193580838705
s 4.975737790800583 -5.841083493548511 10.816821284349095 -5.841083493548511
S 1184.2476171286994 -12.144430433737591 1184.2476171286994 8.191193580838705
z" fill="none" stroke="none" style="animation-play-state:paused" ></path>


<circle cx="0" cy="0" r="3.690173562246027" fill="#51cacc" opacity="0.9" transform="translate(1169.4805908203125 15.816575050354004)" style="opacity:0.9;animation-play-state:paused" ></circle>
<path id="path39" d="M 573.5992948791094 25.27151239662476
c 0 26.814581480197486 -6.561014617495129 7.702060637929065 -14.263075255424194 7.702060637929065
S 545.0731443682611 52.08609387682225 545.0731443682611 25.27151239662476
s 6.561014617495129 -7.702060637929065 14.263075255424194 -7.702060637929065
S 573.5992948791094 -1.5430690835727248 573.5992948791094 25.27151239662476
z" fill="none" stroke="none" style="animation-play-state:paused" ></path>


<circle cx="0" cy="0" r="3.713440478627949" fill="#ff708e" opacity="0.9" transform="translate(573.5870971679688 27.18304443359375)" style="opacity:0.9;animation-play-state:paused" ></circle>
<path id="path40" d="M 1756.8241793860018 55.15065993254667
c 0 20.367221629576253 -4.9834691221303595 5.850159404239988 -10.833628526370347 5.850159404239988
S 1735.156922333261 75.51788156212292 1735.156922333261 55.15065993254667
s 4.9834691221303595 -5.850159404239988 10.833628526370347 -5.850159404239988
S 1756.8241793860018 34.78343830297041 1756.8241793860018 55.15065993254667
z" fill="none" stroke="none" style="animation-play-state:paused" ></path>


<circle cx="0" cy="0" r="4.384468242254725" fill="#de9dd6" opacity="0.9" transform="translate(1756.816650390625 53.90906524658203)" style="opacity:0.9;animation-play-state:paused" ></circle>
<path id="path41" d="M 717.1835601234931 66.72984172580941
c 0 37.42018582072814 -9.156002913582416 10.748351246379361 -19.904354159961777 10.748351246379361
S 677.3748518035694 104.15002754653756 677.3748518035694 66.72984172580941
s 9.156002913582416 -10.748351246379361 19.904354159961777 -10.748351246379361
S 717.1835601234931 29.309655905081264 717.1835601234931 66.72984172580941
z" fill="none" stroke="none" style="animation-play-state:paused" ></path>


<circle cx="0" cy="0" r="5.205690221711938" fill="#51cacc" opacity="0.9" transform="translate(678.1651000976562 52.550575256347656)" style="opacity:0.9;animation-play-state:paused" ></circle></g></svg>