<svg width="28" height="28" viewBox="0 0 28 28" fill="none" xmlns="http://www.w3.org/2000/svg">
<rect x="0.75" y="0.75" width="26.5" height="26.5" rx="13.25" fill="white"/>
<rect x="0.75" y="0.75" width="26.5" height="26.5" rx="13.25" stroke="#8D8D8D" stroke-width="0.5"/>
<g clip-path="url(#clip0_2004_1888)">
<path d="M15.8602 5.44398C14.9614 4.35208 14.1874 3.24312 14.0293 3.0128C14.0126 2.99573 13.9876 2.99573 13.971 3.0128C13.8129 3.24312 13.0388 4.35208 12.14 5.44398C4.42484 15.5184 13.3551 22.3173 13.3551 22.3173L13.43 22.3684C13.4966 23.4177 13.663 24.9276 13.663 24.9276H13.996H14.3289C14.3289 24.9276 14.4953 23.4262 14.5619 22.3684L14.6368 22.3087C14.6451 22.3087 23.5754 15.5184 15.8602 5.44398ZM13.996 22.1637C13.996 22.1637 13.5965 21.8139 13.4883 21.6348V21.6177L13.971 10.6476C13.971 10.6134 14.0209 10.6134 14.0209 10.6476L14.5036 21.6177V21.6348C14.3954 21.8139 13.996 22.1637 13.996 22.1637Z" fill="#00ED64"/>
</g>
<defs>
<clipPath id="clip0_2004_1888">
<rect width="10" height="22" fill="white" transform="translate(9 3)"/>
</clipPath>
</defs>
</svg>
