<svg width="28" height="28" viewBox="0 0 28 28" fill="none" xmlns="http://www.w3.org/2000/svg">
<rect x="0.75" y="0.75" width="26.5" height="26.5" rx="13.25" fill="white"/>
<rect x="0.75" y="0.75" width="26.5" height="26.5" rx="13.25" stroke="#8D8D8D" stroke-width="0.5"/>
<path d="M15.2093 8.9843C14.8688 8.99852 14.2936 9.08993 14.2936 9.12852C14.2936 9.14457 14.699 9.34769 14.7301 9.34769C14.7585 9.34769 15.2292 9.58251 15.3338 9.64751C15.4703 9.73485 15.568 9.81407 15.5394 9.81407C15.5211 9.81407 15.0378 9.62699 14.8546 9.54838C14.7055 9.48561 14.0858 9.30077 13.7842 9.22947C13.6208 9.19129 13.5518 9.17707 13.2741 9.12629C12.8646 9.05154 12.383 9.04707 12.1736 9.11593C11.8736 9.21343 11.8061 9.33327 11.8061 9.77527C11.8061 10.019 11.8181 10.122 11.8711 10.341C11.8943 10.4362 11.9593 10.6457 11.9895 10.7163C11.9983 10.7387 12.0267 10.8078 12.0505 10.8687C12.0751 10.929 12.149 11.0852 12.214 11.213C12.579 11.9375 13.1256 12.5414 13.8961 13.0728C14.139 13.2394 14.7992 13.5552 15.064 13.6308C15.1315 13.6491 15.1538 13.6871 15.099 13.6871C15.038 13.6871 14.4795 13.5331 14.3651 13.4847C14.3216 13.4655 14.2774 13.4477 14.2327 13.4315C13.8351 13.2713 13.3273 12.9412 12.9075 12.5658C12.4474 12.1565 12.0796 11.654 11.8285 11.0917C11.6674 10.7281 11.5579 10.3046 11.5309 9.93554C11.515 9.72449 11.4984 9.67371 11.4435 9.67615C11.4253 9.67615 11.2516 9.66985 11.0602 9.65949C10.5398 9.63715 9.82891 9.69443 9.12508 9.8159C7.77937 10.045 6.32744 10.5744 4.83325 11.3812C4.58476 11.5157 4.33926 11.6557 4.09692 11.801C4.06848 11.8177 3.9787 11.8723 3.89705 11.9231C3.816 11.9739 3.72012 12.0304 3.68519 12.0525C3.608 12.0978 2.75365 12.6777 2.65128 12.7547C2.61309 12.7825 2.50686 12.8618 2.41728 12.927C2.01164 13.2268 1.12865 13.9473 1.07787 14.0204C1.0533 14.0569 1.09209 14.0752 1.1445 14.0569C1.17151 14.0464 1.24058 14.0322 1.29603 14.0244C1.35311 14.0155 1.49997 13.9775 1.62205 13.9371C1.74595 13.8981 1.8792 13.8577 1.91739 13.8473C2.21964 13.7766 2.34192 13.7521 2.51864 13.7258C2.59887 13.7157 2.71709 13.6974 2.78372 13.6871C3.61206 13.5656 4.00734 13.5355 4.37622 13.5631C5.17755 13.6281 5.94414 13.7648 6.38289 13.9202C6.71134 14.0385 7.37942 14.3996 7.67314 14.6161C7.84295 14.7441 8.38875 15.2875 8.50941 15.4516C8.60284 15.5818 8.70684 15.6953 8.73142 15.6953C8.73955 15.6953 8.7497 15.281 8.75214 14.7764L8.75762 13.8599L9.83053 13.8538C10.6747 13.8498 10.9087 13.8561 10.9231 13.8741C10.9437 13.9005 10.9928 13.9879 11.1539 14.2853C11.307 14.5717 11.3824 14.7098 11.4293 14.7923C11.4537 14.8376 11.5102 14.9424 11.5579 15.0256C11.6022 15.1089 11.6855 15.2629 11.7427 15.3683C11.7998 15.4739 11.8465 15.5635 11.8465 15.5674C11.8465 15.5857 11.9306 15.6953 11.9451 15.6953C11.953 15.6953 11.9735 15.6643 11.9877 15.6303C12.0038 15.5938 12.0466 15.5127 12.0816 15.4516C12.1181 15.3907 12.1831 15.2716 12.2282 15.1883C12.2735 15.1051 12.3347 14.9893 12.3672 14.9344C12.4567 14.774 12.5504 14.6003 12.6282 14.4583C12.7107 14.3014 12.7956 14.1458 12.8829 13.9915C12.9091 13.9408 12.9418 13.8875 12.952 13.8741C12.9686 13.8558 13.2089 13.8496 14.0779 13.8534L15.1808 13.8597L15.1869 15.6507C15.191 17.0614 15.1967 17.4392 15.2174 17.4392C15.2292 17.4367 15.3108 17.3898 15.3949 17.3311C15.5132 17.2486 15.5639 17.1979 15.6188 17.1042C15.7433 16.8916 16.0963 16.5568 16.3328 16.4266C16.6201 16.2677 16.9291 16.1518 17.2501 16.0825C17.5761 16.0134 17.6722 16.0033 18.4126 15.9769C19.7637 15.9302 19.9636 15.922 19.974 15.9119C19.9803 15.9064 19.9622 15.8532 19.9352 15.792C19.9067 15.7333 19.858 15.6238 19.8233 15.5509C19.6947 15.2733 19.6947 15.1802 19.8296 15.0439C19.921 14.9485 20.1572 14.8652 20.5634 14.7843C20.6303 14.7701 20.7144 14.7518 20.7483 14.7401C20.7834 14.7297 20.8261 14.7218 20.8444 14.7218C20.896 14.7218 21.3014 14.6224 21.3871 14.5899C21.446 14.5656 21.7641 14.4965 22.1434 14.4234C22.3083 14.3909 22.7369 14.306 23.0915 14.2345C23.316 14.1902 23.5502 14.1433 23.6111 14.1313C23.6723 14.1195 23.7604 14.1012 23.8049 14.0933C23.85 14.0831 23.9087 14.0703 23.9374 14.0663C23.9658 14.0608 24.1088 14.0322 24.2538 14.0021C24.3626 13.9782 24.4719 13.957 24.5817 13.9385C24.684 13.929 25.4529 13.7441 25.6298 13.6871C25.9115 13.5956 25.9948 13.5593 26.1725 13.4403C26.3637 13.3103 26.4169 13.2396 26.6064 12.8618C26.8169 12.4421 26.8469 12.3714 26.9064 12.1945C26.9978 11.913 26.9922 11.8057 26.8756 11.6875C26.7937 11.6066 26.6184 11.5234 26.4906 11.5051C26.3948 11.4931 26.382 11.497 26.3352 11.5477C26.3066 11.5782 26.282 11.6146 26.282 11.6272C26.282 11.6454 26.2495 11.7344 26.1581 11.9534C26.1494 11.9757 26.1313 12.0304 26.1169 12.0746C26.1051 12.1199 26.0803 12.1827 26.0661 12.2168C26.0399 12.2737 26.0377 12.2636 26.0478 12.1057C26.0582 11.9493 26.0844 11.8177 26.1439 11.6184C26.1543 11.5804 26.1685 11.5154 26.1742 11.4748L26.1843 11.4017L25.9725 11.317C25.7521 11.2256 25.5622 11.1464 25.4529 11.0972C25.4155 11.0838 25.3243 11.0472 25.2489 11.0186C25.1711 10.9902 25.0775 10.9536 25.0387 10.9353C24.968 10.904 24.8965 10.8744 24.8244 10.8466C24.6879 10.7933 24.211 10.6314 23.8047 10.5037C23.5335 10.4205 23.2619 10.3386 22.99 10.2579C22.8943 10.2335 22.799 10.2073 22.7044 10.1791C22.6719 10.1703 22.5917 10.1482 22.5305 10.1324C22.1718 10.0332 22.0784 10.0085 21.9496 9.9719C21.8786 9.95146 21.8072 9.9325 21.7355 9.91502C21.6967 9.90547 21.5913 9.8809 21.5015 9.85855C21.3443 9.81976 20.6857 9.66822 20.3286 9.58636L20.0739 9.52766C20.0288 9.51751 19.948 9.50146 19.8907 9.4911C19.8352 9.48094 19.7193 9.4586 19.6352 9.44032C19.5519 9.42468 19.3725 9.38954 19.2377 9.3674C19.1036 9.34363 18.9425 9.31519 18.8814 9.30483C18.3181 9.20327 18.2801 9.19758 17.2706 9.08586C16.6486 9.01518 15.8122 8.95566 15.6084 8.96602C15.5759 8.96602 15.3951 8.97394 15.2093 8.9843ZM12.852 9.98388C13.3907 10.1586 13.9144 10.3958 14.2731 10.6274C14.5587 10.8116 14.9133 11.1059 15.0094 11.2376L15.0498 11.2924L14.9728 11.2621C14.9302 11.2439 14.8404 11.2053 14.773 11.1726C14.4142 11.006 14.3755 10.9924 14.3755 11.029C14.3755 11.0385 14.4587 11.1726 14.5587 11.3225C14.661 11.4748 14.7419 11.6089 14.7419 11.6211C14.7419 11.6312 14.7039 11.6146 14.6562 11.5821C14.473 11.4565 14.0427 11.2758 14.0184 11.3123C14.0121 11.3225 14.1443 11.4907 14.3143 11.6875C14.4809 11.8843 14.6198 12.0525 14.6198 12.0653C14.6198 12.0954 14.5873 12.0913 14.4325 12.0342C14.2731 11.978 14.2327 11.9717 14.2327 12.0105C14.2327 12.0367 14.577 12.5008 14.7135 12.6611C14.7522 12.7056 14.7831 12.7484 14.7831 12.7586C14.7831 12.8071 14.3056 12.4969 13.9676 12.2294C13.4841 11.8439 13.017 11.3265 12.7712 10.899C12.5687 10.5496 12.4996 10.3617 12.4996 10.1545C12.4996 10.0332 12.5053 10.0087 12.5504 9.9656C12.5768 9.93797 12.6099 9.91482 12.6219 9.91482C12.6337 9.91482 12.736 9.9459 12.852 9.98388ZM19.2892 10.706C19.4845 10.7409 19.7518 10.787 19.8803 10.81C20.0089 10.8323 20.1659 10.8583 20.2271 10.8687C20.2882 10.8807 20.3754 10.8965 20.4207 10.9067C20.4653 10.917 20.5533 10.9353 20.6144 10.9495C20.8159 10.9942 20.8651 11.0044 21.1952 11.0814C21.5498 11.1646 21.6276 11.1805 21.7355 11.2026C21.8275 11.2209 21.9187 11.2558 21.9187 11.2717C21.9187 11.2782 21.8521 11.317 21.7704 11.359C21.603 11.4423 21.5681 11.4486 20.8793 11.4748C20.4105 11.4947 20.1596 11.489 19.9311 11.4525C19.47 11.3814 19.2322 11.252 19.0465 10.9719C18.9815 10.8766 18.9387 10.848 18.7894 10.81C18.7345 10.7933 18.6506 10.771 18.6061 10.7568C18.5608 10.7426 18.4839 10.7202 18.4347 10.706C18.2878 10.668 18.3713 10.6457 18.6673 10.6457C18.871 10.6457 19.014 10.6593 19.2892 10.706ZM21.7418 13.5396C21.7251 13.5436 21.7077 13.5436 21.691 13.5396C21.6768 13.5331 21.6869 13.5292 21.7156 13.5292C21.7434 13.5292 21.7538 13.5333 21.742 13.5394L21.7418 13.5396ZM21.6538 13.5633C21.6538 13.5735 21.6301 13.5877 21.599 13.5942C21.5356 13.6101 21.2872 13.6816 21.2055 13.7076C21.1769 13.7179 21.0849 13.7466 21.0016 13.7705C20.7914 13.8315 20.2819 13.9972 20.1454 14.0504C19.8883 14.1479 19.2846 14.4679 19.1997 14.5536C19.0727 14.6773 19.0337 14.8105 19.0528 15.0661C19.0583 15.1739 19.0727 15.3098 19.0853 15.3683C19.1099 15.4963 19.0955 15.531 19.0465 15.4676C18.9974 15.4049 18.8934 15.178 18.8631 15.0661C18.8464 15.0161 18.8284 14.9487 18.818 14.9162C18.7814 14.801 18.7957 14.6645 18.8529 14.582C18.9299 14.4638 19.2076 14.2757 19.5336 14.1195C19.6884 14.0441 20.1389 13.89 20.5533 13.7687C20.6366 13.7443 20.7286 13.7157 20.7572 13.7078C21.0507 13.6084 21.6538 13.5132 21.6538 13.5633ZM15.2054 13.6996C15.1989 13.7053 15.1808 13.7078 15.1664 13.7013C15.1498 13.6958 15.1563 13.6895 15.1784 13.6895C15.2014 13.6871 15.2133 13.6936 15.2054 13.6996Z" fill="#850000"/>
<path d="M10.9297 17.6228V19.0422H11.9453C12.7078 19.0422 12.9664 19.0361 12.9847 19.0178C13.0156 18.9874 13.0221 16.2033 12.991 16.2033C12.9808 16.2033 12.9666 16.2192 12.9601 16.2375C12.952 16.2557 12.73 16.6025 12.4649 17.0079C12.0453 17.649 11.9287 17.8052 11.9287 17.726C11.9287 17.7117 11.2336 16.627 11.0558 16.365C11.032 16.3311 11.011 16.2953 10.9931 16.258C10.9764 16.2271 10.9565 16.2031 10.9463 16.2031C10.9376 16.2031 10.9297 16.842 10.9297 17.6228Z" fill="#850000"/>
</svg>
