<svg width="28" height="28" viewBox="0 0 28 28" fill="none" xmlns="http://www.w3.org/2000/svg">
<g clip-path="url(#clip0_2004_1880)">
<mask id="mask0_2004_1880" style="mask-type:alpha" maskUnits="userSpaceOnUse" x="1" y="1" width="26" height="26">
<path d="M14 27C21.1797 27 27 21.1797 27 14C27 6.8203 21.1797 1 14 1C6.8203 1 1 6.8203 1 14C1 21.1797 6.8203 27 14 27Z" fill="black"/>
</mask>
<g mask="url(#mask0_2004_1880)">
<path d="M14 27C21.1797 27 27 21.1797 27 14C27 6.8203 21.1797 1 14 1C6.8203 1 1 6.8203 1 14C1 21.1797 6.8203 27 14 27Z" fill="black"/>
<path d="M22.5964 23.7537L16.7922 16.2772L10.988 8.80078H8.80078V19.1964H10.5505V11.0229L21.2229 24.8117C21.7044 24.4895 22.1632 24.1357 22.5964 23.7537Z" fill="url(#paint0_linear_2004_1880)"/>
<path d="M19.3447 8.80078H17.6113V19.2008H19.3447V8.80078Z" fill="url(#paint1_linear_2004_1880)"/>
</g>
</g>
<rect x="0.75" y="0.75" width="26.5" height="26.5" rx="13.25" stroke="#8D8D8D" stroke-width="0.5"/>
<defs>
<linearGradient id="paint0_linear_2004_1880" x1="16.7452" y1="17.8286" x2="21.873" y2="24.1841" gradientUnits="userSpaceOnUse">
<stop stop-color="white"/>
<stop offset="1" stop-color="white" stop-opacity="0"/>
</linearGradient>
<linearGradient id="paint1_linear_2004_1880" x1="18.478" y1="8.80078" x2="18.449" y2="16.4383" gradientUnits="userSpaceOnUse">
<stop stop-color="white"/>
<stop offset="1" stop-color="white" stop-opacity="0"/>
</linearGradient>
<clipPath id="clip0_2004_1880">
<rect x="1" y="1" width="26" height="26" rx="13" fill="white"/>
</clipPath>
</defs>
</svg>
