<svg width="415" height="379" viewBox="0 0 415 379" fill="none" xmlns="http://www.w3.org/2000/svg">
<path d="M270.423 170.665L13.2884 306.415C10.0997 308.098 10.5911 312.809 14.0585 313.799L240.328 378.346C241.742 378.749 243.263 378.344 244.289 377.292L409.463 207.913C411.641 205.679 410.537 201.922 407.497 201.222L273.187 170.304C272.252 170.089 271.271 170.217 270.423 170.665Z" fill="#FFE7B8"/>
<path d="M183.482 297.932L269.954 325.762C270.385 325.901 270.856 325.74 271.112 325.367L335.194 232.249C335.662 231.569 335.175 230.643 334.349 230.643H280.222C280.017 230.643 279.817 230.704 279.647 230.819L183.221 296.107C182.514 296.586 182.669 297.67 183.482 297.932Z" fill="#A6B4CE" stroke="#8F9DB8" stroke-width="2.05061"/>
<path d="M201.051 295.865L268.072 315.578C268.418 315.679 268.791 315.592 269.056 315.349L288.988 297.015C289.085 296.926 289.164 296.819 289.22 296.7L314.225 244.087C314.504 243.498 314.172 242.802 313.538 242.65L289.563 236.896C289.29 236.83 289.002 236.879 288.766 237.032L200.783 294.021C200.047 294.498 200.21 295.618 201.051 295.865Z" fill="#212925"/>
<path fill-rule="evenodd" clip-rule="evenodd" d="M288.287 244.759L300.257 236.71L299.424 235.471L286.386 244.238L266.067 238.678L265.673 240.118L284.75 245.339L278.347 249.644L260.095 244.648L259.701 246.088L276.711 250.744L269.444 255.631L251.138 250.621L250.744 252.061L267.807 256.731L240.44 275.134L227.247 271.523L226.853 272.963L238.804 276.234L229.525 282.474L216.796 278.99L216.402 280.43L227.889 283.574L218.039 290.197L207.091 287.201L206.697 288.641L216.403 291.298L205.732 298.473L206.566 299.712L218.305 291.818L226.392 294.032L214.112 302.818L214.98 304.032L228.248 294.539L235.577 296.545L222.084 306.52L222.972 307.72L237.41 297.047L245.455 299.249L230.275 311.101L231.194 312.278L247.252 299.74L254.563 301.742L239.877 314.006L240.834 315.152L256.318 302.222L266.256 304.942L254.078 316.186L255.091 317.283L267.954 305.406L277.617 308.051L278.012 306.611L269.247 304.212L277.033 297.024L287.323 299.84L287.717 298.4L278.326 295.83L285.66 289.058L297.774 292.373L298.168 290.933L286.953 287.864L293.297 282.007L303.743 284.909L304.143 283.47L294.587 280.816L301.525 274.41L312.708 277.445L313.099 276.004L302.82 273.214L308.585 267.891L321.664 271.471L322.058 270.031L309.878 266.697L315.623 261.393L330.621 265.498L331.015 264.058L316.916 260.199L321.977 255.527L336.594 259.528L336.988 258.087L323.27 254.333L338.044 240.692L337.031 239.595L321.572 253.868L316.033 252.352L327.494 242.781L326.537 241.635L314.279 251.872L310.045 250.714L320.186 242.796L319.267 241.619L308.249 250.222L302.78 248.725L313.763 240.606L312.876 239.405L300.947 248.224L295.188 246.647L306.804 238.337L305.935 237.123L293.332 246.14L288.287 244.759ZM286.651 245.859L280.249 250.164L285.643 251.641L291.767 247.259L286.651 245.859ZM278.613 251.264L271.345 256.151L277.127 257.734L284.078 252.76L278.613 251.264ZM269.709 257.252L262.319 262.221L268.507 263.901L275.562 258.853L269.709 257.252ZM260.68 263.323L252.183 269.037L258.77 270.867L266.939 265.022L260.68 263.323ZM250.552 270.134L242.342 275.654L249.384 277.582L257.21 271.983L250.552 270.134ZM240.706 276.755L231.427 282.994L238.944 285.052L247.819 278.702L240.706 276.755ZM229.79 284.094L219.941 290.718L227.957 292.912L237.379 286.171L229.79 284.094ZM314.637 253.518L320.279 255.062L315.218 259.735L309.174 258.081L314.637 253.518ZM307.778 259.246L313.925 260.929L308.181 266.233L301.577 264.425L307.778 259.246ZM300.181 265.591L306.887 267.427L301.119 272.752L293.939 270.803L300.181 265.591ZM292.541 271.971L299.825 273.948L292.895 280.346L285.104 278.182L292.541 271.971ZM283.712 279.345L291.605 281.537L285.256 287.399L276.828 285.093L283.712 279.345ZM275.432 286.259L283.963 288.593L276.628 295.365L267.515 292.871L275.432 286.259ZM266.119 294.037L275.335 296.559L267.549 303.748L257.714 301.056L266.119 294.037ZM255.959 300.576L264.364 293.557L257.557 291.694L248.72 298.594L255.959 300.576ZM265.76 292.391L273.678 285.779L267.351 284.047L259.026 290.548L265.76 292.391ZM275.074 284.613L281.964 278.859L276.087 277.227L268.819 282.901L275.074 284.613ZM283.356 277.696L290.783 271.494L285.327 270.013L277.551 276.084L283.356 277.696ZM292.181 270.326L298.426 265.111L293.375 263.729L286.797 268.865L292.181 270.326ZM299.822 263.945L306.024 258.766L301.364 257.491L294.843 262.583L299.822 263.945ZM307.42 257.6L312.883 253.038L308.577 251.86L302.832 256.345L307.42 257.6ZM301.252 249.855L306.781 251.368L301.036 255.853L295.271 254.276L301.252 249.855ZM293.743 255.405L299.568 256.999L293.047 262.091L286.955 260.423L293.743 255.405ZM285.426 261.553L291.579 263.237L284.997 268.376L278.56 266.629L285.426 261.553ZM277.029 267.761L283.526 269.524L275.761 275.587L268.987 273.705L277.029 267.761ZM267.464 274.831L274.298 276.73L267.023 282.409L259.863 280.45L267.464 274.831ZM258.335 281.58L265.555 283.556L257.229 290.056L249.667 287.987L258.335 281.58ZM248.139 289.116L255.761 291.202L246.923 298.103L238.939 295.917L248.139 289.116ZM237.106 295.416L246.306 288.615L239.235 286.679L229.813 293.42L237.106 295.416ZM247.834 287.485L256.502 281.078L249.675 279.21L240.8 285.56L247.834 287.485ZM258.03 279.948L265.638 274.324L259.058 272.496L251.24 278.09L258.03 279.948ZM267.162 273.198L275.192 267.262L268.8 265.527L260.618 271.38L267.162 273.198ZM276.723 266.13L283.593 261.052L277.418 259.361L270.367 264.405L276.723 266.13ZM285.121 259.922L291.91 254.904L285.934 253.268L278.983 258.242L285.121 259.922ZM293.438 253.774L299.419 249.353L293.623 247.767L287.499 252.148L293.438 253.774Z" fill="#A6B4CE" fill-opacity="0.1"/>
<path d="M220.022 248.988L174.293 237.06C173.397 236.827 173.246 235.619 174.056 235.171L220.118 209.729C220.342 209.605 220.603 209.57 220.852 209.629L262.081 219.442C262.954 219.649 263.158 220.798 262.41 221.294L220.848 248.85C220.605 249.011 220.304 249.061 220.022 248.988Z" fill="#BDA9C9"/>
<path d="M230.694 227.567C233.339 222.276 228.985 217.655 225.567 216.288C224.541 215.834 205.061 213.212 198.909 216.288C192.758 219.364 190.707 229.617 191.732 232.693C192.758 235.769 203.011 237.82 211.214 237.82C219.416 237.82 227.619 233.718 230.694 227.567Z" fill="#3B3939"/>
<path d="M36.9109 254.122V286.217C36.9109 289.344 40.2703 291.321 43.0039 289.802L125.652 243.886C127.613 242.797 128.335 240.334 127.273 238.359L79.6101 149.706C78.6425 147.906 76.4975 147.094 74.5801 147.8L4.20867 173.726C1.94768 174.559 0.88856 177.153 1.92006 179.33L36.5162 252.367C36.7761 252.915 36.9109 253.515 36.9109 254.122Z" fill="#D4A29A"/>
<path d="M40.9109 255.122V283.771C40.9109 286.842 44.1621 288.824 46.8916 287.416L129.48 244.834C131.517 243.783 132.298 241.266 131.212 239.247L83.6101 150.706C82.6425 148.906 80.4975 148.094 78.5801 148.8L8.20867 174.726C5.94768 175.559 4.88856 178.153 5.92006 180.33L40.5162 253.367C40.7761 253.915 40.9109 254.515 40.9109 255.122Z" fill="#E6B0A7"/>
<path d="M409 202C363.545 190.722 276.626 169.33 271.704 170.15C266.919 170.947 102.183 258.604 12.9492 306.499" stroke="#DAC8A1" stroke-width="2.98614" stroke-linecap="round"/>
<path d="M183.529 218.338C181.888 218.338 148.668 207.402 132.263 201.934C130.555 208.427 127.752 221.414 130.213 221.414C133.289 221.414 181.478 227.566 184.554 227.566C187.63 227.566 195.833 228.591 200.959 228.591C206.086 228.591 226.591 222.44 225.566 219.364C224.541 216.288 208.136 210.136 201.984 210.136C195.832 210.136 185.579 218.338 183.529 218.338Z" fill="#E2C1B7"/>
<path d="M96.3025 134.265L65.618 151.694L52.2891 158.872L55.365 84.0244L96.3025 75.8223V134.265Z" fill="#321606" stroke="black" stroke-width="2.05061"/>
<path d="M74.8414 132.214L73.8161 104.531L99.4493 107.607C98.7658 112.392 97.6038 122.782 98.424 126.063C99.2443 129.344 111.774 131.963 112.778 132.214C116.879 133.24 118.934 137.341 118.934 141.442C118.934 146.964 114.828 160.923 91.2463 159.898C67.6643 158.872 63.5667 142.467 66.6426 138.366C69.1034 135.085 73.4743 132.898 74.8414 132.214Z" fill="#E2C1B7"/>
<path d="M101.59 117.358C94.2082 118.178 75.9598 111.206 63.6544 93.776C59.5531 82.4976 63.6361 64.0422 69.7879 54.8145L69.788 54.8143C75.9399 45.5865 90.294 24.0552 103.623 23.0299C116.952 22.0046 124.129 47.6372 126.18 51.7384C127.6 54.5789 129.981 74.1916 129.235 82.4035C128.975 87.8097 127.742 92.1084 126.18 96.2674C122.816 105.222 110.818 116.333 101.59 117.358Z" fill="#E2C1B7"/>
<path d="M120.987 68.4288C118.826 68.1857 115.91 71.7799 114.703 73.9959C116.651 76.4016 118.634 76.6016 121.018 76.6167C123.359 76.6315 125.666 75.6727 127.118 72.7047C126.216 71.376 123.225 68.6806 120.987 68.4288Z" fill="#E9E9E9"/>
<path d="M118.034 73.0176C118.014 74.9326 119.476 76.2842 121.331 76.3038C123.186 76.3234 124.732 75.0035 124.752 73.0885C124.773 71.1735 123.285 69.6052 121.43 69.5857C119.575 69.5661 118.054 71.1026 118.034 73.0176Z" fill="#502E18"/>
<circle cx="1.86634" cy="1.86634" r="1.86634" transform="matrix(-0.999944 -0.0105493 -0.0105493 0.999944 124.008 71.0762)" fill="black"/>
<path d="M114 74C118.333 67.1354 122.432 66.9464 127.657 72.1736" stroke="#181818" stroke-width="1.49307"/>
<path d="M97.5676 117.476C90.7262 116.727 84.0048 113.741 81.0186 110.755" stroke="#AB8D84" stroke-width="1.49307" stroke-linecap="square"/>
<ellipse cx="92.2767" cy="81.5076" rx="7.17713" ry="2.05061" fill="#FF727A" fill-opacity="0.1"/>
<ellipse cx="121.945" cy="80.3754" rx="5.42653" ry="2.06611" transform="rotate(-1.71507 121.945 80.3754)" fill="#FF727A" fill-opacity="0.1"/>
<path d="M112.161 76.8477C111.857 79.5384 111.431 85.1723 112.161 86.1819" stroke="#161616" stroke-width="1.49307"/>
<path d="M93.8443 68.1297C96.3763 67.8546 99.7931 71.9204 101.208 74.4272C98.9257 77.1488 96.6013 77.3752 93.8084 77.3924C91.0641 77.4092 88 76 85.9988 73.5C87.0553 71.9968 91.2211 68.4147 93.8443 68.1297Z" fill="#E9E9E9"/>
<path d="M91.0438 73.332C91.0236 75.247 92.4857 76.5987 94.341 76.6183C96.1962 76.6378 97.742 75.3179 97.7622 73.4029C97.7825 71.4879 96.2949 69.9197 94.4396 69.9001C92.5844 69.8805 91.064 71.4171 91.0438 73.332Z" fill="#502E18"/>
<circle cx="1.86634" cy="1.86634" r="1.86634" transform="matrix(-0.999944 -0.0105493 -0.0105493 0.999944 97.0176 71.3906)" fill="black"/>
<path d="M101.421 74.1266C94.81 65.456 91.8238 68.4422 85.6381 74.2261" stroke="#181818" stroke-width="1.49307"/>
<path d="M113.753 63.8161L114.213 64.9429C114.309 65.1769 114.571 65.2941 114.811 65.2151C116.851 64.543 122.192 63.1515 123.526 63.2925C124.818 63.429 126.435 63.9156 127.366 64.5033C127.532 64.6083 127.757 64.5784 127.873 64.4194C127.953 64.3104 127.961 64.1662 127.88 64.0581C127.555 63.622 126.538 62.4957 124.245 61.6904C121.58 60.7546 115.978 62.4837 114.008 63.2158C113.766 63.3057 113.655 63.5772 113.753 63.8161Z" fill="#161616"/>
<path d="M57.4841 72.1743C60.2875 61.8536 88.8578 51.8998 99.4526 37.8873C104.578 17.3822 87.1506 12.2547 80.9987 11.2294C74.8469 10.2041 56.3899 20.456 49.2143 28.6585C42.0388 36.8609 42.0372 84.026 42.0372 89.1525C42.0372 94.2791 38.0742 161.012 38.0742 161.012C38.0742 161.012 65.696 150.56 67.1891 149.814C70.5858 140.472 53.7306 85.993 57.4841 72.1743Z" fill="#3D2313" stroke="#30180A" stroke-width="2.05061"/>
<path d="M52.2578 156.533C55.244 146.081 54.4974 120.699 53.7509 110.994" stroke="#30180A" stroke-width="1.49307"/>
<path d="M44.793 158.026C46.286 151.307 47.0326 145.334 47.0326 137.869" stroke="#30180A" stroke-width="1.49307"/>
<path d="M103.309 64.036L102.977 65.3578C102.911 65.6211 102.637 65.7752 102.375 65.7055C100.028 65.0825 93.908 64.0744 92.2951 63.8959C91.0625 63.7595 87.5077 64.5309 85.8607 65.0848C85.5 65.2061 84.9545 64.9321 84.8943 64.5564L84.854 64.3053C84.8177 64.0787 84.9492 63.8599 85.1676 63.7895C86.4067 63.3904 90.3928 62.1472 92.4136 62.0003C94.4298 61.8539 100.594 62.9949 102.951 63.4651C103.213 63.5172 103.374 63.7773 103.309 64.036Z" fill="#161616"/>
<path d="M93.3027 99.4294C98.4456 102.071 106.959 102.197 111.758 99.4043" stroke="#161616" stroke-width="1.49307"/>
<path d="M113.796 91.2031C113.796 91.2031 113.922 91.8047 113.356 92.1479C112.791 92.491 111.839 92.127 111.04 92.2702C110.242 92.4134 110.4 93.2537 108.715 93.2537C107.03 93.2537 107.35 92.438 106.499 92.1479C105.647 91.8569 105.309 92.3286 104.513 92.1479C103.741 91.9726 103.555 91.2031 103.555 91.2031" stroke="#161616" stroke-width="1.49307"/>
<path d="M132.262 144.517C126.725 135.299 115.192 131.873 111.774 132.214C116.473 134.607 110.747 150.926 99.469 153.745C74.8616 159.897 69.2197 135.957 68.691 136.315C36.9081 157.847 46.818 195.874 51.2651 194.757C55.3491 193.731 51.8887 199.742 55.9899 202.818C59.2709 205.278 70.0843 245.309 73.1602 272.992L138.855 237.905C138.855 237.905 137.896 205.971 139.441 179.377C140.508 161.017 136.034 150.797 132.262 144.517Z" fill="#272A3D"/>
<path fill-rule="evenodd" clip-rule="evenodd" d="M127.812 184.202C127.058 184.374 125.948 182.401 125.198 179.656C125.069 179.824 124.936 179.992 124.797 180.16C124.872 180.439 124.944 180.726 125.011 181.02C125.746 184.235 125.663 186.997 124.826 187.188C124.086 187.357 123.004 185.462 122.256 182.8C119.883 184.936 116.814 186.947 113.276 188.31C110.647 189.323 108.081 190.079 105.728 190.572C106.322 193.526 106.201 195.966 105.416 196.145C104.614 196.328 103.412 194.091 102.666 191.079C102.153 191.139 101.657 191.184 101.179 191.214C101.85 194.315 101.749 196.932 100.935 197.118C100.098 197.309 98.8233 194.858 98.0882 191.642C98.0497 191.474 98.0134 191.307 97.9793 191.141C96.1578 190.901 94.9004 190.284 94.451 189.277C93.7298 188.739 92.8856 188.056 92.0051 187.287C89.6827 185.259 87.9864 183.402 88.2162 183.139C88.4459 182.876 90.5148 184.306 92.8371 186.334C93.4893 186.904 94.0922 187.46 94.6168 187.971C96.0414 185.577 102.76 182.152 108.085 179.438L108.085 179.438C110.16 178.38 112.024 177.43 113.28 176.691C116.069 175.05 118.255 173.838 119.981 172.977C120.041 172.744 120.114 172.518 120.198 172.3C119.029 171.579 118.408 170.281 118.408 168.479C118.408 166.239 120.001 164.746 122.887 164.746C124.492 164.746 125.928 165.008 126.886 165.737C126.978 165.737 127.072 165.741 127.166 165.75C127.772 165.806 128.675 165.632 129.575 165.459C130.129 165.352 130.681 165.246 131.161 165.194C131.277 164.93 131.54 164.746 131.846 164.746C132.258 164.746 132.592 165.08 132.592 165.493C132.592 165.493 132.592 165.493 132.592 165.493C133.052 166.421 131.611 167.731 128.836 169.111C128.558 169.249 128.281 169.377 128.007 169.495C127.872 170.122 127.609 170.67 127.245 171.132C127.884 172.069 128.257 173.29 128.227 174.617C128.208 175.462 128.028 176.257 127.724 176.957C127.821 177.304 127.913 177.664 127.997 178.033C128.732 181.249 128.649 184.01 127.812 184.202Z" fill="#D4761F"/>
<path d="M122.886 167.73C123.633 168.477 127.068 169.97 126.322 171.463C125.849 172.407 123.336 173.703 122.589 172.956L120.297 169.97" stroke="#965315" stroke-width="0.447921"/>
<path d="M100.48 241.922C98.0195 241.102 85.1007 208.087 78.9488 191.682C75.8729 188.606 51.2656 191.682 51.2656 194.758C51.2656 197.834 83.05 261.403 89.2019 264.479C95.3537 267.555 188.656 271.656 192.758 272.681C196.859 273.706 210.188 286.01 217.365 287.035C224.542 288.06 235.82 279.858 236.846 275.757C237.871 271.656 204.036 259.352 197.884 257.302C191.732 255.251 103.556 242.947 100.48 241.922Z" fill="#E2C1B7"/>
<path d="M128.164 58.3899C127.344 56.7494 110.05 41.3015 101.506 33.7826C90.2276 26.6055 70.3367 11.636 80.9998 9.17529C94.3288 6.09938 120.986 13.2771 126.112 24.5554C131.239 35.8337 129.189 60.4405 128.164 58.3899Z" fill="#3D2313" stroke="#30180A" stroke-width="2.05061"/>
<path d="M367.837 145.667L293.471 216.067C293.318 216.211 293.214 216.399 293.171 216.605L271.36 322.686C271.156 323.679 272.363 324.334 273.085 323.622L350.425 247.273C350.574 247.126 350.674 246.938 350.713 246.733L369.549 146.601C369.733 145.624 368.559 144.984 367.837 145.667Z" fill="#DCE9FB"/>
<path d="M371.165 144.581C371.767 144.012 371.793 143.063 371.223 142.461C370.654 141.859 369.705 141.833 369.103 142.403L371.165 144.581ZM293.47 216.068L292.439 214.978L293.47 216.068ZM293.171 216.604L291.702 216.299L293.171 216.604ZM294.501 217.157L371.165 144.581L369.103 142.403L292.439 214.978L294.501 217.157ZM291.702 216.299L269.531 323.195L272.469 323.805L294.64 216.909L291.702 216.299ZM292.439 214.978C292.064 215.333 291.807 215.794 291.702 216.299L294.64 216.909C294.62 217.003 294.572 217.09 294.501 217.157L292.439 214.978Z" fill="#A6B4CE"/>
<path d="M72.1576 72.7444C72.1576 78.2066 70.4959 83.1122 67.8581 86.6292C65.2206 90.1458 61.6553 92.2251 57.8034 92.2251C53.9515 92.2251 50.3861 90.1458 47.7486 86.6292C45.1109 83.1122 43.4491 78.2066 43.4491 72.7444C43.4491 67.2822 45.1109 62.3765 47.7486 58.8596C50.3861 55.3429 53.9515 53.2636 57.8034 53.2636C61.6553 53.2636 65.2206 55.3429 67.8581 58.8596C70.4959 62.3765 72.1576 67.2822 72.1576 72.7444Z" fill="#0F0F0F" stroke="#0C0C0C" stroke-width="2.05061"/>
<path d="M61.9048 72.7447C61.9048 77.132 60.9023 81.0535 59.3337 83.842C57.7471 86.6627 55.7156 88.1243 53.7023 88.1243C51.6891 88.1243 49.6576 86.6627 48.071 83.842C46.5024 81.0535 45.4999 77.132 45.4999 72.7447C45.4999 68.3574 46.5024 64.436 48.071 61.6474C49.6576 58.8267 51.6891 57.3651 53.7023 57.3651C55.7156 57.3651 57.7471 58.8267 59.3337 61.6474C60.9023 64.436 61.9048 68.3574 61.9048 72.7447Z" fill="#383838" stroke="#0C0C0C" stroke-width="2.05061"/>
<path fill-rule="evenodd" clip-rule="evenodd" d="M50.7577 43.0727C50.6714 41.2768 50.6282 40.3789 50.6282 40.9621C50.6282 40.9621 45.8433 40.6208 42.4258 40.9626C42.6785 48.0376 43.2301 60.4557 43.832 66.78C42.9535 67.8436 42.4258 69.2076 42.4258 70.6948C42.4258 74.0924 45.18 76.8466 48.5776 76.8466C51.9752 76.8466 54.7294 74.0924 54.7294 70.6948C54.7294 68.7484 53.8255 67.0131 52.4145 65.8859C51.5441 59.4317 50.992 47.9459 50.7577 43.0727Z" fill="#282828"/>
<path d="M50.6282 40.9621L50.5553 41.9848L51.6535 42.0632V40.9621H50.6282ZM50.7577 43.0727L49.7336 43.122V43.122L50.7577 43.0727ZM42.4258 40.9626L42.3238 39.9424L41.3668 40.0381L41.4011 40.9992L42.4258 40.9626ZM43.832 66.78L44.6225 67.4329L44.8929 67.1055L44.8527 66.6828L43.832 66.78ZM52.4145 65.8859L51.3984 66.0229L51.4533 66.4303L51.7745 66.6869L52.4145 65.8859ZM51.6535 40.9621C51.6535 40.8878 51.6543 40.8612 51.6543 40.8615C51.6543 40.8626 51.6536 40.8766 51.6516 40.8972C51.6505 40.9075 51.6483 40.9279 51.6441 40.9542C51.6413 40.9712 51.6311 41.0343 51.6049 41.1122C51.5928 41.1486 51.5625 41.2334 51.5019 41.3301C51.458 41.4002 51.2921 41.6517 50.9442 41.7623C50.5016 41.903 50.1404 41.7133 49.9649 41.5622C49.817 41.4349 49.7446 41.2978 49.7219 41.2534C49.6682 41.1486 49.6461 41.0587 49.6421 41.043C49.6338 41.0107 49.6291 40.9853 49.627 40.9735C49.6185 40.9259 49.6237 40.9533 49.637 41.184C49.6582 41.554 49.6903 42.221 49.7336 43.122L51.7818 43.0235C51.7388 42.1285 51.7061 41.4486 51.6842 41.0665C51.6759 40.9212 51.6649 40.7211 51.6457 40.6131C51.6429 40.5975 51.6375 40.569 51.6286 40.5343C51.6239 40.5161 51.6012 40.4244 51.547 40.3185C51.5239 40.2734 51.4512 40.136 51.303 40.0083C51.1273 39.857 50.7658 39.6673 50.3229 39.8081C49.9747 39.9188 49.8086 40.1705 49.7644 40.241C49.7035 40.3382 49.673 40.4235 49.6606 40.4606C49.634 40.5401 49.6232 40.6054 49.62 40.6253C49.6153 40.6543 49.6126 40.6783 49.6112 40.6928C49.6083 40.7218 49.6069 40.747 49.6061 40.7619C49.6034 40.8177 49.6029 40.8907 49.6029 40.9621H51.6535ZM42.5278 41.9828C44.1713 41.8184 46.1706 41.8169 47.7817 41.8591C48.5824 41.8802 49.2779 41.9117 49.7728 41.938C50.0201 41.9511 50.217 41.9629 50.3515 41.9714C50.4187 41.9756 50.4703 41.979 50.5047 41.9814C50.522 41.9825 50.5349 41.9834 50.5434 41.984C50.5477 41.9843 50.5508 41.9845 50.5528 41.9846C50.5538 41.9847 50.5545 41.9848 50.5549 41.9848C50.5551 41.9848 50.5552 41.9848 50.5553 41.9848C50.5553 41.9848 50.5553 41.9848 50.5553 41.9848C50.5553 41.9848 50.5553 41.9848 50.6282 40.9621C50.7012 39.9394 50.7011 39.9394 50.701 39.9394C50.7009 39.9394 50.7008 39.9394 50.7007 39.9394C50.7005 39.9394 50.7002 39.9393 50.6998 39.9393C50.6991 39.9393 50.698 39.9392 50.6967 39.9391C50.6941 39.9389 50.6903 39.9386 50.6853 39.9383C50.6755 39.9376 50.6612 39.9366 50.6425 39.9354C50.6052 39.9329 50.5507 39.9293 50.4804 39.9248C50.3399 39.916 50.1362 39.9038 49.8815 39.8903C49.3725 39.8632 48.6582 39.8308 47.8355 39.8092C46.1997 39.7663 44.0977 39.765 42.3238 39.9424L42.5278 41.9828ZM44.8527 66.6828C44.2541 60.3933 43.7033 48.0047 43.4504 40.926L41.4011 40.9992C41.6537 48.0705 42.2061 60.518 42.8113 66.8771L44.8527 66.6828ZM43.4511 70.6948C43.4511 69.4546 43.8902 68.3196 44.6225 67.4329L43.0414 66.1271C42.0168 67.3677 41.4005 68.9606 41.4005 70.6948H43.4511ZM48.5776 75.8213C45.7463 75.8213 43.4511 73.5261 43.4511 70.6948H41.4005C41.4005 74.6586 44.6138 77.8719 48.5776 77.8719V75.8213ZM53.7041 70.6948C53.7041 73.5261 51.4089 75.8213 48.5776 75.8213V77.8719C52.5414 77.8719 55.7547 74.6586 55.7547 70.6948H53.7041ZM51.7745 66.6869C52.9525 67.628 53.7041 69.0733 53.7041 70.6948H55.7547C55.7547 68.4235 54.6985 66.3983 53.0545 65.0848L51.7745 66.6869ZM49.7336 43.122C49.967 47.9767 50.5207 59.5146 51.3984 66.0229L53.4306 65.7488C52.5676 59.3488 52.017 47.9152 51.7818 43.0235L49.7336 43.122Z" fill="#0C0C0C"/>
<path d="M50.6194 40.9615C53.0801 20.4555 83.7768 10.5442 93.6881 9.17713C92.6634 6.44298 87.3312 2 78.3085 2C72.1606 2 60.8679 6.10122 52.6695 14.3036C44.8303 22.1467 41.3917 34.468 42.417 40.9615H50.6194Z" fill="#0F0F0F" stroke="#0C0C0C" stroke-width="2.05061"/>
<path d="M64.9492 44.5514C73.9905 39.5448 79.6667 32.156 85.8522 23.6484" stroke="#30180A" stroke-width="1.49307"/>
<path fill-rule="evenodd" clip-rule="evenodd" d="M152.691 330.986C152.691 330.987 152.691 330.988 152.691 330.988C152.689 338.125 142.959 343.91 130.956 343.91C118.953 343.91 109.223 338.125 109.221 330.988C109.221 330.988 109.221 330.987 109.221 330.986V312.189V311.016H109.309C110.306 304.428 119.617 299.266 130.956 299.266C142.295 299.266 151.605 304.428 152.603 311.016H152.691V312.189V330.986Z" fill="#D9D9D9"/>
<ellipse cx="130.956" cy="312.189" rx="21.7352" ry="12.9236" fill="#A5A5A5"/>
<ellipse cx="130.958" cy="311.604" rx="17.0357" ry="9.98643" fill="#63533C"/>
<path fill-rule="evenodd" clip-rule="evenodd" d="M120.993 292.219C120.523 275.771 126.868 272.246 130.98 272.246C135.092 272.246 141.436 275.771 140.966 292.219C140.496 308.667 135.092 313.954 130.98 313.954C126.868 313.954 121.463 308.667 120.993 292.219Z" fill="#64C686"/>
<path d="M120.993 292.219L121.581 292.202L120.993 292.219ZM140.966 292.219L140.379 292.202L140.966 292.219ZM130.98 271.659C128.745 271.659 125.945 272.623 123.786 275.729C121.644 278.811 120.169 283.949 120.406 292.236L121.581 292.202C121.347 284.041 122.81 279.192 124.751 276.4C126.675 273.631 129.103 272.834 130.98 272.834V271.659ZM130.98 272.834C132.857 272.834 135.285 273.631 137.209 276.4C139.15 279.192 140.612 284.041 140.379 292.202L141.553 292.236C141.79 283.949 140.316 278.811 138.174 275.729C136.015 272.623 133.215 271.659 130.98 271.659V272.834ZM140.379 292.202C140.146 300.375 138.687 305.701 136.828 308.964C134.972 312.223 132.76 313.367 130.98 313.367V314.542C133.312 314.542 135.858 313.042 137.849 309.545C139.839 306.052 141.317 300.512 141.553 292.236L140.379 292.202ZM120.406 292.236C120.643 300.512 122.121 306.052 124.11 309.545C126.102 313.042 128.648 314.542 130.98 314.542V313.367C129.2 313.367 126.987 312.223 125.131 308.964C123.273 305.701 121.814 300.375 121.581 292.202L120.406 292.236Z" fill="#64C686"/>
<path d="M130.957 272.246V313.954" stroke="#368F54" stroke-width="1.17487"/>
<path fill-rule="evenodd" clip-rule="evenodd" d="M138.554 295.767C148.9 284.812 155.291 286.638 157.953 289.301C160.616 291.964 162.442 298.354 151.487 308.701C140.532 319.047 133.609 318.971 130.946 316.308C128.283 313.646 128.207 306.723 138.554 295.767Z" fill="#64C686"/>
<path d="M138.554 295.767L138.981 296.171L138.554 295.767ZM151.487 308.701L151.083 308.273L151.487 308.701ZM158.369 288.886C156.911 287.428 154.457 286.233 151.031 286.849C147.634 287.461 143.343 289.841 138.127 295.364L138.981 296.171C144.111 290.739 148.189 288.555 151.239 288.006C154.26 287.462 156.333 288.512 157.538 289.716L158.369 288.886ZM157.538 289.716C158.743 290.921 159.792 292.994 159.248 296.015C158.7 299.065 156.515 303.143 151.083 308.273L151.89 309.128C157.413 303.911 159.793 299.621 160.405 296.223C161.021 292.797 159.827 290.343 158.369 288.886L157.538 289.716ZM151.083 308.273C145.643 313.411 141.256 315.91 137.951 316.816C134.65 317.721 132.497 317.029 131.361 315.893L130.531 316.724C132.057 318.25 134.697 318.927 138.262 317.949C141.823 316.973 146.375 314.336 151.89 309.128L151.083 308.273ZM138.127 295.364C132.918 300.879 130.281 305.431 129.305 308.992C128.327 312.557 129.004 315.197 130.531 316.724L131.361 315.893C130.225 314.757 129.533 312.604 130.438 309.303C131.344 305.998 133.843 301.611 138.981 296.171L138.127 295.364Z" fill="#64C686"/>
<path d="M157.943 289.287L130.936 316.294" stroke="#368F54" stroke-width="1.17487"/>
<path fill-rule="evenodd" clip-rule="evenodd" d="M111.594 308.702C100.639 298.356 102.464 291.965 105.127 289.303C107.79 286.64 114.18 284.814 124.527 295.769C134.873 306.724 134.797 313.647 132.134 316.31C129.472 318.973 122.549 319.049 111.594 308.702Z" fill="#64C686"/>
<path d="M111.594 308.702L111.997 308.275L111.594 308.702ZM124.527 295.769L124.1 296.173L124.527 295.769ZM104.712 288.887C103.254 290.345 102.059 292.799 102.676 296.225C103.287 299.622 105.667 303.913 111.19 309.129L111.997 308.275C106.565 303.145 104.381 299.067 103.832 296.017C103.288 292.995 104.338 290.923 105.542 289.718L104.712 288.887ZM105.542 289.718C106.747 288.513 108.82 287.464 111.841 288.007C114.892 288.556 118.97 290.741 124.1 296.173L124.954 295.366C119.737 289.842 115.447 287.462 112.049 286.851C108.624 286.235 106.17 287.429 104.712 288.887L105.542 289.718ZM124.1 296.173C129.237 301.612 131.736 306 132.642 309.305C133.548 312.605 132.855 314.758 131.719 315.895L132.55 316.725C134.076 315.199 134.753 312.559 133.775 308.994C132.799 305.433 130.163 300.881 124.954 295.366L124.1 296.173ZM111.19 309.129C116.705 314.338 121.257 316.975 124.818 317.951C128.383 318.929 131.023 318.252 132.55 316.725L131.719 315.895C130.583 317.031 128.43 317.723 125.129 316.818C121.824 315.912 117.437 313.413 111.997 308.275L111.19 309.129Z" fill="#64C686"/>
<path d="M105.111 289.32L132.119 316.328" stroke="#368F54" stroke-width="1.17487"/>
<path fill-rule="evenodd" clip-rule="evenodd" d="M271.844 169.222V169.223V175.195H271.096C267.385 175.195 264.377 178.203 264.377 181.914V183.407C264.377 187.118 267.385 190.126 271.096 190.126H271.844V191.619V191.619C271.844 194.917 277.526 197.591 284.535 197.591C291.544 197.591 297.226 194.917 297.226 191.619V191.619V169.223V169.222C297.226 165.924 291.544 163.25 284.535 163.25C277.526 163.25 271.844 165.924 271.844 169.222ZM271.844 187.14V178.181H271.842C269.369 178.181 267.363 180.187 267.363 182.661C267.363 185.134 269.369 187.14 271.842 187.14H271.844Z" fill="#FBFBFB"/>
<ellipse cx="284.535" cy="169.223" rx="9.70495" ry="4.47921" fill="#87653D"/>
</svg>
